<?xml version="1.0" encoding="UTF-8" standalone="no"?>
<!DOCTYPE svg PUBLIC "-//W3C//DTD SVG 1.1//EN" "http://www.w3.org/Graphics/SVG/1.1/DTD/svg11.dtd">
<svg width="100%" height="100%" viewBox="0 0 128 128" version="1.1" xmlns="http://www.w3.org/2000/svg" xmlns:xlink="http://www.w3.org/1999/xlink" xml:space="preserve" xmlns:serif="http://www.serif.com/" style="fill-rule:evenodd;clip-rule:evenodd;stroke-linejoin:round;stroke-miterlimit:2;">
    <style>
        @media (prefers-color-scheme: dark) {
            path { fill: white; }
        }
    </style>
    <g id="B-W" serif:id="B&amp;W" transform="matrix(1,0,0,1,-356,0)">
        <rect x="356" y="0" width="128" height="128" style="fill:none;"/>
        <g transform="matrix(0,1.500145,-1.500145,0,516.008981,-566.069976)">
            <path d="M415.429,82.286C415.429,82.286 401.318,89.341 393.338,93.331C392.572,93.714 391.647,93.564 391.042,92.958C390.436,92.353 390.286,91.428 390.669,90.662C397.022,77.956 412.907,46.187 418.23,35.54C418.565,34.87 419.25,34.446 420,34.446C420.75,34.446 421.435,34.87 421.77,35.54C427.097,46.194 443,78 449.344,90.688C449.725,91.45 449.576,92.371 448.973,92.973C448.371,93.576 447.45,93.725 446.688,93.344C438.714,89.357 424.571,82.286 424.571,82.286L420,64L415.429,82.286Z"/>
        </g>
    </g>
</svg>
